# xmcd
#
# Track frame offsets:
#       150
#       14746
#       29026
#       44202
#       60692
#       77919
#       92256
#       111115
#       130654
#       146721
#       161465
#       178502
#       193917
#
# Disc length: 2759 seconds
#
# Revision: 0
# Processed by: cddbd v1.5PL3 Copyright (c) Steve Scherf et al.
# Submitted via: WaveLab 4.01
#
DISCID=b90ac50d
DTITLE=Tony Stampley - Rebelution
DYEAR=1900
DGENRE=Country
TTITLE0=American Offline
TTITLE1=Another Cold One
TTITLE2=Dreamin' Again
TTITLE3=Dirt Road Rock 'n' Roll
TTITLE4=I Hate To See You Go (But I Love To Watch You Walk Away)
TTITLE5=One Bad Habit
TTITLE6=Doctor Jesus
TTITLE7=He Never Said He Loved Me
TTITLE8=You Won't Mind The Rain
TTITLE9=One Shot
TTITLE10=I Know What You've Got Up Your Sleeve
TTITLE11=Bad Girl (Looking For A Good Time)
TTITLE12=Waste Of Good Whiskey
EXTD=
EXTT0=
EXTT1=
EXTT2=
EXTT3=
EXTT4=
EXTT5=
EXTT6=
EXTT7=
EXTT8=
EXTT9=
EXTT10=
EXTT11=
EXTT12=
PLAYORDER=
